<svg xmlns="http://www.w3.org/2000/svg" viewBox="0 0 900 520" width="900" height="520">
  <defs>
    <linearGradient id="bgGrad" x1="0%" y1="0%" x2="100%" y2="100%">
      <stop offset="0%" style="stop-color:#0f0f1a;stop-opacity:1" />
      <stop offset="100%" style="stop-color:#1a1a2e;stop-opacity:1" />
    </linearGradient>
    <linearGradient id="cardGrad" x1="0%" y1="0%" x2="0%" y2="100%">
      <stop offset="0%" style="stop-color:#1e1e3a;stop-opacity:1" />
      <stop offset="100%" style="stop-color:#16162a;stop-opacity:1" />
    </linearGradient>
    <linearGradient id="accentGrad" x1="0%" y1="0%" x2="100%" y2="0%">
      <stop offset="0%" style="stop-color:#7c3aed;stop-opacity:1" />
      <stop offset="100%" style="stop-color:#3b82f6;stop-opacity:1" />
    </linearGradient>
    <filter id="glow">
      <feGaussianBlur stdDeviation="3" result="coloredBlur"/>
      <feMerge>
        <feMergeNode in="coloredBlur"/>
        <feMergeNode in="SourceGraphic"/>
      </feMerge>
    </filter>
    <filter id="softglow">
      <feGaussianBlur stdDeviation="6" result="coloredBlur"/>
      <feMerge>
        <feMergeNode in="coloredBlur"/>
        <feMergeNode in="SourceGraphic"/>
      </feMerge>
    </filter>
  </defs>

  <!-- Background -->
  <rect width="900" height="520" fill="url(#bgGrad)" rx="12"/>

  <!-- Subtle grid -->
  <g opacity="0.04" stroke="#7c3aed" stroke-width="1">
    <line x1="0" y1="65" x2="900" y2="65"/>
    <line x1="0" y1="130" x2="900" y2="130"/>
    <line x1="0" y1="195" x2="900" y2="195"/>
    <line x1="0" y1="260" x2="900" y2="260"/>
    <line x1="0" y1="325" x2="900" y2="325"/>
    <line x1="0" y1="390" x2="900" y2="390"/>
    <line x1="0" y1="455" x2="900" y2="455"/>
    <line x1="112" y1="0" x2="112" y2="520"/>
    <line x1="225" y1="0" x2="225" y2="520"/>
    <line x1="337" y1="0" x2="337" y2="520"/>
    <line x1="450" y1="0" x2="450" y2="520"/>
    <line x1="562" y1="0" x2="562" y2="520"/>
    <line x1="675" y1="0" x2="675" y2="520"/>
    <line x1="787" y1="0" x2="787" y2="520"/>
  </g>

  <!-- Title -->
  <text x="450" y="42" font-family="'Courier New', monospace" font-size="22" font-weight="bold" fill="#ffffff" text-anchor="middle" filter="url(#glow)">DegenRadar</text>
  <text x="450" y="62" font-family="'Courier New', monospace" font-size="11" fill="#6b7280" text-anchor="middle">Solana Smart Wallet Discovery Pipeline</text>

  <!-- Accent line under title -->
  <rect x="320" y="70" width="260" height="2" rx="1" fill="url(#accentGrad)" opacity="0.8"/>

  <!-- Step boxes: row 1 (steps 1-4) -->
  <!-- Step 1: Discovery -->
  <rect x="30" y="110" width="130" height="90" rx="8" fill="url(#cardGrad)" stroke="#7c3aed" stroke-width="1.5"/>
  <rect x="30" y="110" width="130" height="4" rx="2" fill="#7c3aed"/>
  <text x="95" y="135" font-family="'Courier New', monospace" font-size="10" fill="#7c3aed" text-anchor="middle" font-weight="bold">01 / DISCOVERY</text>
  <text x="95" y="153" font-family="'Courier New', monospace" font-size="9" fill="#9ca3af" text-anchor="middle">DexScreener</text>
  <text x="95" y="167" font-family="'Courier New', monospace" font-size="9" fill="#9ca3af" text-anchor="middle">Pump.fun</text>
  <text x="95" y="181" font-family="'Courier New', monospace" font-size="9" fill="#6b7280" text-anchor="middle">tokens 1d–21d old</text>

  <!-- Arrow 1→2 -->
  <line x1="160" y1="155" x2="188" y2="155" stroke="#7c3aed" stroke-width="1.5" opacity="0.7"/>
  <polygon points="188,150 198,155 188,160" fill="#7c3aed" opacity="0.7"/>

  <!-- Step 2: Harvest -->
  <rect x="200" y="110" width="130" height="90" rx="8" fill="url(#cardGrad)" stroke="#6366f1" stroke-width="1.5"/>
  <rect x="200" y="110" width="130" height="4" rx="2" fill="#6366f1"/>
  <text x="265" y="135" font-family="'Courier New', monospace" font-size="10" fill="#6366f1" text-anchor="middle" font-weight="bold">02 / HARVEST</text>
  <text x="265" y="153" font-family="'Courier New', monospace" font-size="9" fill="#9ca3af" text-anchor="middle">last 200 txs</text>
  <text x="265" y="167" font-family="'Courier New', monospace" font-size="9" fill="#9ca3af" text-anchor="middle">per token</text>
  <text x="265" y="181" font-family="'Courier New', monospace" font-size="9" fill="#6b7280" text-anchor="middle">extract wallets</text>

  <!-- Arrow 2→3 -->
  <line x1="330" y1="155" x2="358" y2="155" stroke="#6366f1" stroke-width="1.5" opacity="0.7"/>
  <polygon points="358,150 368,155 358,160" fill="#6366f1" opacity="0.7"/>

  <!-- Step 3: Filter -->
  <rect x="370" y="110" width="130" height="90" rx="8" fill="url(#cardGrad)" stroke="#3b82f6" stroke-width="1.5"/>
  <rect x="370" y="110" width="130" height="4" rx="2" fill="#3b82f6"/>
  <text x="435" y="135" font-family="'Courier New', monospace" font-size="10" fill="#3b82f6" text-anchor="middle" font-weight="bold">03 / FILTER</text>
  <text x="435" y="153" font-family="'Courier New', monospace" font-size="9" fill="#9ca3af" text-anchor="middle">drop whales</text>
  <text x="435" y="167" font-family="'Courier New', monospace" font-size="9" fill="#9ca3af" text-anchor="middle">drop MEV bots</text>
  <text x="435" y="181" font-family="'Courier New', monospace" font-size="9" fill="#6b7280" text-anchor="middle">drop insiders</text>

  <!-- Arrow 3→4 -->
  <line x1="500" y1="155" x2="528" y2="155" stroke="#3b82f6" stroke-width="1.5" opacity="0.7"/>
  <polygon points="528,150 538,155 528,160" fill="#3b82f6" opacity="0.7"/>

  <!-- Step 4: Enrich -->
  <rect x="540" y="110" width="130" height="90" rx="8" fill="url(#cardGrad)" stroke="#06b6d4" stroke-width="1.5"/>
  <rect x="540" y="110" width="130" height="4" rx="2" fill="#06b6d4"/>
  <text x="605" y="135" font-family="'Courier New', monospace" font-size="10" fill="#06b6d4" text-anchor="middle" font-weight="bold">04 / ENRICH</text>
  <text x="605" y="153" font-family="'Courier New', monospace" font-size="9" fill="#9ca3af" text-anchor="middle">50+ trades</text>
  <text x="605" y="167" font-family="'Courier New', monospace" font-size="9" fill="#9ca3af" text-anchor="middle">per wallet</text>
  <text x="605" y="181" font-family="'Courier New', monospace" font-size="9" fill="#6b7280" text-anchor="middle">48h cache TTL</text>

  <!-- Curved arrow from step 4 down to step 5 -->
  <path d="M 670 155 Q 740 155 740 230 Q 740 280 680 280" stroke="#06b6d4" stroke-width="1.5" fill="none" opacity="0.7" stroke-dasharray="4,3"/>
  <polygon points="680,275 670,280 680,285" fill="#06b6d4" opacity="0.7"/>

  <!-- Step 5: Score -->
  <rect x="540" y="250" width="130" height="90" rx="8" fill="url(#cardGrad)" stroke="#10b981" stroke-width="1.5"/>
  <rect x="540" y="250" width="130" height="4" rx="2" fill="#10b981"/>
  <text x="605" y="275" font-family="'Courier New', monospace" font-size="10" fill="#10b981" text-anchor="middle" font-weight="bold">05 / SCORE</text>
  <text x="605" y="293" font-family="'Courier New', monospace" font-size="9" fill="#9ca3af" text-anchor="middle">Alpha Score 0–100</text>
  <text x="605" y="307" font-family="'Courier New', monospace" font-size="9" fill="#9ca3af" text-anchor="middle">PnL · WR · Copy</text>
  <text x="605" y="321" font-family="'Courier New', monospace" font-size="9" fill="#6b7280" text-anchor="middle">Consistency</text>

  <!-- Arrow 5→6 -->
  <line x1="540" y1="295" x2="512" y2="295" stroke="#10b981" stroke-width="1.5" opacity="0.7"/>
  <polygon points="512,290 502,295 512,300" fill="#10b981" opacity="0.7"/>

  <!-- Step 6: Master List -->
  <rect x="370" y="250" width="130" height="90" rx="8" fill="url(#cardGrad)" stroke="#f59e0b" stroke-width="1.5"/>
  <rect x="370" y="250" width="130" height="4" rx="2" fill="#f59e0b"/>
  <text x="435" y="275" font-family="'Courier New', monospace" font-size="10" fill="#f59e0b" text-anchor="middle" font-weight="bold">06 / PERSIST</text>
  <text x="435" y="293" font-family="'Courier New', monospace" font-size="9" fill="#9ca3af" text-anchor="middle">master_wallets.json</text>
  <text x="435" y="307" font-family="'Courier New', monospace" font-size="9" fill="#9ca3af" text-anchor="middle">consistency bonus</text>
  <text x="435" y="321" font-family="'Courier New', monospace" font-size="9" fill="#6b7280" text-anchor="middle">re-spot tracking</text>

  <!-- Arrow 6→7 -->
  <line x1="370" y1="295" x2="342" y2="295" stroke="#f59e0b" stroke-width="1.5" opacity="0.7"/>
  <polygon points="342,290 332,295 342,300" fill="#f59e0b" opacity="0.7"/>

  <!-- Step 7: Watch -->
  <rect x="200" y="250" width="130" height="90" rx="8" fill="url(#cardGrad)" stroke="#ef4444" stroke-width="1.5"/>
  <rect x="200" y="250" width="130" height="4" rx="2" fill="#ef4444"/>
  <text x="265" y="275" font-family="'Courier New', monospace" font-size="10" fill="#ef4444" text-anchor="middle" font-weight="bold">07 / WATCH</text>
  <text x="265" y="293" font-family="'Courier New', monospace" font-size="9" fill="#9ca3af" text-anchor="middle">top 30 wallets</text>
  <text x="265" y="307" font-family="'Courier New', monospace" font-size="9" fill="#9ca3af" text-anchor="middle">poll every 2 min</text>
  <text x="265" y="321" font-family="'Courier New', monospace" font-size="9" fill="#6b7280" text-anchor="middle">push alerts</text>

  <!-- Alert bubble -->
  <rect x="30" y="260" width="130" height="70" rx="8" fill="#1a0a0a" stroke="#ef4444" stroke-width="1" stroke-dasharray="4,3"/>
  <text x="95" y="283" font-family="'Courier New', monospace" font-size="9" fill="#ef4444" text-anchor="middle">🚨 ALERT</text>
  <text x="95" y="299" font-family="'Courier New', monospace" font-size="8" fill="#9ca3af" text-anchor="middle">wallet_Ax3f... bought</text>
  <text x="95" y="313" font-family="'Courier New', monospace" font-size="8" fill="#9ca3af" text-anchor="middle">BONK · 2.4 SOL</text>
  <text x="95" y="327" font-family="'Courier New', monospace" font-size="8" fill="#6b7280" text-anchor="middle">score: 78 · WR: 71%</text>
  <line x1="200" y1="295" x2="162" y2="295" stroke="#ef4444" stroke-width="1.5" opacity="0.7" stroke-dasharray="4,3"/>
  <polygon points="162,290 152,295 162,300" fill="#ef4444" opacity="0.7"/>

  <!-- Scoring breakdown box -->
  <rect x="710" y="110" width="162" height="230" rx="8" fill="#0d0d1a" stroke="#374151" stroke-width="1"/>
  <text x="791" y="133" font-family="'Courier New', monospace" font-size="9" fill="#6b7280" text-anchor="middle">ALPHA SCORE</text>
  <text x="791" y="150" font-family="'Courier New', monospace" font-size="20" font-weight="bold" fill="#10b981" text-anchor="middle" filter="url(#glow)">78.4</text>

  <!-- Score bars -->
  <text x="722" y="175" font-family="'Courier New', monospace" font-size="8" fill="#9ca3af">PnL</text>
  <rect x="745" y="165" width="80" height="8" rx="2" fill="#1e1e3a"/>
  <rect x="745" y="165" width="58" height="8" rx="2" fill="#7c3aed" opacity="0.8"/>
  <text x="858" y="173" font-family="'Courier New', monospace" font-size="8" fill="#7c3aed">35%</text>

  <text x="722" y="195" font-family="'Courier New', monospace" font-size="8" fill="#9ca3af">WR</text>
  <rect x="745" y="185" width="80" height="8" rx="2" fill="#1e1e3a"/>
  <rect x="745" y="185" width="50" height="8" rx="2" fill="#3b82f6" opacity="0.8"/>
  <text x="858" y="193" font-family="'Courier New', monospace" font-size="8" fill="#3b82f6">25%</text>

  <text x="722" y="215" font-family="'Courier New', monospace" font-size="8" fill="#9ca3af">Copy</text>
  <rect x="745" y="205" width="80" height="8" rx="2" fill="#1e1e3a"/>
  <rect x="745" y="205" width="50" height="8" rx="2" fill="#06b6d4" opacity="0.8"/>
  <text x="858" y="213" font-family="'Courier New', monospace" font-size="8" fill="#06b6d4">25%</text>

  <text x="722" y="235" font-family="'Courier New', monospace" font-size="8" fill="#9ca3af">Cons</text>
  <rect x="745" y="225" width="80" height="8" rx="2" fill="#1e1e3a"/>
  <rect x="745" y="225" width="30" height="8" rx="2" fill="#10b981" opacity="0.8"/>
  <text x="858" y="233" font-family="'Courier New', monospace" font-size="8" fill="#10b981">15%</text>

  <line x1="722" y1="248" x2="860" y2="248" stroke="#374151" stroke-width="1"/>

  <text x="722" y="265" font-family="'Courier New', monospace" font-size="8" fill="#6b7280">trades</text>
  <text x="860" y="265" font-family="'Courier New', monospace" font-size="8" fill="#9ca3af" text-anchor="end">47</text>
  <text x="722" y="280" font-family="'Courier New', monospace" font-size="8" fill="#6b7280">win rate</text>
  <text x="860" y="280" font-family="'Courier New', monospace" font-size="8" fill="#9ca3af" text-anchor="end">68%</text>
  <text x="722" y="295" font-family="'Courier New', monospace" font-size="8" fill="#6b7280">avg hold</text>
  <text x="860" y="295" font-family="'Courier New', monospace" font-size="8" fill="#9ca3af" text-anchor="end">8.3m</text>
  <text x="722" y="310" font-family="'Courier New', monospace" font-size="8" fill="#6b7280">pnl</text>
  <text x="860" y="310" font-family="'Courier New', monospace" font-size="8" fill="#10b981" text-anchor="end">+12.4 SOL</text>
  <text x="722" y="325" font-family="'Courier New', monospace" font-size="8" fill="#6b7280">copyable</text>
  <text x="860" y="325" font-family="'Courier New', monospace" font-size="8" fill="#10b981" text-anchor="end">✓ yes</text>

  <!-- Scheduler info -->
  <rect x="30" y="390" width="840" height="50" rx="8" fill="#0d0d1a" stroke="#374151" stroke-width="1"/>
  <text x="450" y="411" font-family="'Courier New', monospace" font-size="9" fill="#6b7280" text-anchor="middle">SCHEDULER</text>
  <text x="450" y="430" font-family="'Courier New', monospace" font-size="9" fill="#9ca3af" text-anchor="middle">Full pipeline runs every 2–4 hours (adaptive)  ·  Watcher polls top 30 wallets every 2 min  ·  10,000+ wallets tracked in master list</text>

  <!-- Footer -->
  <text x="450" y="500" font-family="'Courier New', monospace" font-size="8" fill="#374151" text-anchor="middle">github.com/your-username/DegenRadar  ·  python 3.11+  ·  solana mainnet</text>
</svg>
